<?xml version="1.0" encoding="utf-8"?>
<!-- Generator: Adobe Illustrator 19.2.1, SVG Export Plug-In . SVG Version: 6.00 Build 0)  -->
<svg version="1.1" id="Capa_1" xmlns="http://www.w3.org/2000/svg" xmlns:xlink="http://www.w3.org/1999/xlink" x="0px" y="0px"
	 viewBox="0 0 204 43" style="enable-background:new 0 0 204 43;" xml:space="preserve">
<style type="text/css">
	.st0{fill:#E30613;}
</style>
<path class="st0" d="M83.3,22.4c-2-2-4.3-2.9-7-2.9s-5,1-6.9,2.9c-2,2-2.9,4.3-2.9,7.1c0,2.7,1,5.1,2.9,7c1.9,2,4.2,3,6.9,3
	s5.1-1,7-3c1.9-1.9,2.9-4.3,2.9-7C86.1,26.7,85.2,24.4,83.3,22.4 M80,33.2c-1,1-2.2,1.5-3.7,1.5c-1.4,0-2.6-0.5-3.6-1.5
	c-1-1-1.5-2.3-1.5-3.7c0-1.5,0.5-2.7,1.5-3.7c1-1,2.2-1.5,3.6-1.5c1.5,0,2.7,0.5,3.7,1.5c1,1,1.5,2.2,1.5,3.7
	C81.5,30.9,81,32.1,80,33.2"/>
<path class="st0" d="M14,14.6c-3.4,0-6.2,1.1-8.6,3.6c-2.4,2.4-3.6,5.3-3.6,8.7c0,3.4,1.2,6.3,3.6,8.7c2.4,2.4,5.2,3.6,8.6,3.6
	c2.7,0,5.2-0.8,7.4-2.5c2.1-1.7,3.5-3.9,4.3-6.5h-5c-0.6,1.3-1.5,2.3-2.7,3.1c-1.3,0.8-2.6,1.2-4.1,1.2c-2.1,0-3.9-0.8-5.3-2.2
	c-1.5-1.5-2.2-3.3-2.2-5.4c0-2.1,0.7-3.9,2.2-5.4c1.5-1.5,3.2-2.2,5.3-2.2c1.5,0,2.8,0.4,4.1,1.2c1.1,0.8,2,1.9,2.7,3.1h5
	c-0.7-2.6-2.1-4.8-4.3-6.5C19.2,15.4,16.7,14.6,14,14.6"/>
<path class="st0" d="M44,19.5c-3.2,0-5.4,0.8-6.7,2.5c-0.8,1-1.2,2.4-1.4,4.1h4.7c0.1-0.8,0.4-1.4,0.7-1.7c0.5-0.6,1.3-1,2.5-0.9
	c1,0,1.8,0.1,2.3,0.5c0.5,0.3,0.8,0.8,0.8,1.6c0,0.6-0.4,1.1-1.1,1.5l-3.6,0.6c-1.7,0.2-3,0.6-4.1,1.2c-1.8,1-2.6,2.7-2.6,5.2
	c0,1.7,0.5,3.1,1.6,4.1c1,0.8,2.3,1.3,3.9,1.3c2.6,0,4.6-0.7,6.1-2v2h4.7V25.4c0-2.3-0.8-3.9-2.4-4.7C47.9,19.8,46.1,19.4,44,19.5
	 M46,30.2l0.9-0.5v1.9c0,1.6-0.5,2.8-1.3,3.4c-0.9,0.6-1.9,1-3,1c-0.7,0-1.2-0.2-1.7-0.5c-0.5-0.4-0.7-1-0.7-1.9
	c0-1,0.4-1.6,1.1-2.1c0.5-0.3,1.2-0.5,2.2-0.6L46,30.2z"/>
<rect x="28.1" y="14.6" class="st0" width="4.7" height="24.7"/>
<g>
	<path class="st0" d="M62.9,20.1c-1.3,0.5-2.4,1.4-3.4,2.7v-2.4l-4.5,0v19h4.7v-9.1c0-1.6,0.2-2.6,0.6-3.3c0.3-0.7,0.9-1.3,1.6-1.8
		c0.8-0.5,1.7-0.8,2.6-0.8l1.5,0.1l0-4.8l-1.2,0.1L62.9,20.1z"/>
</g>
<rect x="83.1" y="10.9" transform="matrix(0.7067 -0.7075 0.7075 0.7067 17.5346 68.3223)" class="st0" width="16.2" height="4.2"/>
<rect x="74.7" y="3.4" class="st0" width="4.2" height="12.3"/>
<rect x="89.1" y="25" class="st0" width="12.5" height="4.2"/>
<g>
	<path d="M109.8,23.6l0.1,1.8c1.2-1.4,2.7-2.1,4.7-2.1c2.1,0,3.6,0.8,4.3,2.5c1.1-1.7,2.8-2.5,4.9-2.5c1.8,0,3.1,0.5,4,1.5
		s1.3,2.6,1.3,4.7V40h-4.4V29.5c0-0.9-0.2-1.6-0.5-2c-0.4-0.4-1-0.6-1.9-0.6c-1.3,0-2.2,0.6-2.7,1.9l0,11.3h-4.4V29.5
		c0-1-0.2-1.6-0.6-2.1c-0.4-0.4-1-0.6-1.9-0.6c-1.2,0-2.1,0.5-2.7,1.5V40h-4.4V23.6H109.8z"/>
	<path d="M142.3,38.3c-1.1,1.3-2.6,2-4.5,2c-1.8,0-3.1-0.5-4-1.5c-0.9-1-1.4-2.5-1.4-4.4V23.6h4.4v10.6c0,1.7,0.8,2.6,2.3,2.6
		c1.5,0,2.5-0.5,3.1-1.5V23.6h4.4V40h-4.1L142.3,38.3z M140.3,16.7h4.8l-4.2,4.7h-3.6L140.3,16.7z"/>
	<path d="M158.7,35.4c0-0.5-0.3-1-0.8-1.3s-1.4-0.6-2.5-0.8c-3.9-0.8-5.8-2.5-5.8-5c0-1.5,0.6-2.7,1.8-3.6s2.8-1.5,4.7-1.5
		c2.1,0,3.7,0.5,5,1.5c1.2,1,1.9,2.2,1.9,3.8h-4.4c0-0.6-0.2-1.1-0.6-1.5c-0.4-0.4-1-0.6-1.9-0.6c-0.7,0-1.3,0.2-1.7,0.5
		c-0.4,0.3-0.6,0.8-0.6,1.3c0,0.5,0.2,0.9,0.7,1.2c0.5,0.3,1.2,0.6,2.3,0.8c1.1,0.2,2,0.5,2.8,0.7c2.3,0.8,3.5,2.3,3.5,4.4
		c0,1.5-0.6,2.7-1.9,3.6s-2.9,1.4-5,1.4c-1.4,0-2.6-0.2-3.7-0.7c-1.1-0.5-1.9-1.2-2.5-2c-0.6-0.9-0.9-1.8-0.9-2.8h4.1
		c0,0.8,0.3,1.4,0.9,1.8c0.5,0.4,1.2,0.6,2.1,0.6c0.8,0,1.5-0.2,1.9-0.5S158.7,36,158.7,35.4z"/>
	<path d="M165.7,19.4c0-0.7,0.2-1.2,0.7-1.6c0.4-0.4,1-0.6,1.8-0.6c0.7,0,1.3,0.2,1.8,0.6c0.4,0.4,0.7,1,0.7,1.6
		c0,0.7-0.2,1.2-0.7,1.6c-0.4,0.4-1,0.6-1.8,0.6s-1.3-0.2-1.8-0.6C165.9,20.6,165.7,20,165.7,19.4z M170.4,40H166V23.6h4.4V40z"/>
	<path d="M180.8,36.7c0.8,0,1.5-0.2,2-0.7c0.5-0.4,0.8-1,0.8-1.8h4.1c0,1.1-0.3,2.1-0.9,3s-1.4,1.6-2.4,2.1c-1,0.5-2.2,0.8-3.4,0.8
		c-2.3,0-4.2-0.7-5.5-2.2c-1.4-1.5-2-3.5-2-6.2v-0.3c0-2.5,0.7-4.5,2-6c1.3-1.5,3.2-2.3,5.5-2.3c2,0,3.7,0.6,4.9,1.7
		s1.9,2.7,1.9,4.6h-4.1c0-0.9-0.3-1.5-0.8-2.1c-0.5-0.5-1.2-0.8-2-0.8c-1,0-1.8,0.4-2.3,1.1s-0.8,1.9-0.8,3.6V32
		c0,1.7,0.3,2.9,0.8,3.6C178.9,36.4,179.7,36.7,180.8,36.7z"/>
	<path d="M199.6,40c-0.2-0.4-0.3-0.9-0.4-1.5c-1.1,1.2-2.4,1.8-4.1,1.8c-1.6,0-2.9-0.5-4-1.4c-1.1-0.9-1.6-2.1-1.6-3.5
		c0-1.7,0.6-3.1,1.9-4s3.1-1.4,5.6-1.4h2V29c0-0.8-0.2-1.4-0.6-1.8c-0.4-0.5-1-0.7-1.8-0.7c-0.7,0-1.3,0.2-1.7,0.5
		c-0.4,0.4-0.6,0.8-0.6,1.5h-4.4c0-0.9,0.3-1.8,0.9-2.6s1.4-1.4,2.5-1.9c1.1-0.5,2.3-0.7,3.6-0.7c2,0,3.6,0.5,4.8,1.5
		c1.2,1,1.8,2.4,1.8,4.3v7.1c0,1.6,0.2,2.7,0.7,3.5V40H199.6z M196,36.9c0.6,0,1.2-0.1,1.8-0.4s0.9-0.7,1.2-1.2v-2.8h-1.6
		c-2.2,0-3.4,0.8-3.5,2.3l0,0.3c0,0.5,0.2,1,0.6,1.3C194.8,36.7,195.3,36.9,196,36.9z"/>
</g>
</svg>
