<?xml version="1.0" encoding="utf-8"?>
<!-- Generator: Adobe Illustrator 19.2.1, SVG Export Plug-In . SVG Version: 6.00 Build 0)  -->
<svg version="1.1" id="Layer_1" xmlns="http://www.w3.org/2000/svg" xmlns:xlink="http://www.w3.org/1999/xlink" x="0px" y="0px"
	 viewBox="0 0 38 38" style="enable-background:new 0 0 38 38;" xml:space="preserve">
<style type="text/css">
	.st0{fill:#E9EAEB;}
	.st1{fill:#FFFFFF;}
	.st2{fill:#EF3829;}
</style>
<g>
	<g>
		<circle class="st0" cx="20.9" cy="19.1" r="15.2"/>
	</g>
	<g>
		<path class="st1" d="M25.3,14.6l-0.1-0.1c-0.6-0.7-0.7-1.6-0.2-2.2l2.3-2.2c0.8-0.8,2-0.9,2.7-0.2l0.1,0.1
			c0.6,0.7,0.5,1.9-0.4,2.7l-2.3,2.2C26.8,15.3,25.9,15.2,25.3,14.6z"/>
		<path d="M26.5,15.7L26.5,15.7c-0.7,0-1.2-0.3-1.7-0.8l0,0l-0.1-0.1c-0.8-0.9-0.9-2.2-0.1-3l2.3-2.2c0.6-0.6,1.3-0.9,2-0.8
			c0.6,0,1.1,0.2,1.4,0.6l0.1,0.1c0.8,0.9,0.7,2.5-0.4,3.5l-2.3,2.2C27.4,15.5,27,15.7,26.5,15.7z M25.7,14.2
			c0.2,0.2,0.5,0.4,0.8,0.4c0.1,0,0.3,0,0.5-0.2l2.3-2.2c0.6-0.6,0.8-1.4,0.4-1.9l-0.1-0.1C29.4,10,29.2,9.9,29,9.9
			c-0.4,0-0.9,0.2-1.2,0.5l-2.3,2.2c-0.3,0.3-0.2,0.9,0.2,1.4V14.2z"/>
	</g>
	<g>
		<path class="st1" d="M13.6,17.5l-3-1.1l-4,12.9c0.2,0.2,0.5,0.4,0.7,0.6c0.8,0.7,1.5,1.5,2.1,2.3l3.9,0.6c0.9-0.9,1.5-1.6,2.2-2.3
			c5.7,0.4,8.3-3.9,8.9-4.5C24.9,25.2,13.6,17.5,13.6,17.5z"/>
		<path d="M13.4,33.3L9,32.7l-0.1-0.2c-0.6-0.8-1.2-1.5-2-2.2c-0.2-0.2-0.4-0.4-0.6-0.6L6,29.5l4.3-13.8l3.7,1.4
			c4.9,3.4,10.9,7.6,11,8.7V26l-0.2,0.3c0,0.1-0.1,0.1-0.2,0.2c-0.9,1.2-3.6,4.8-8.9,4.5c-0.7,0.6-1.3,1.2-2,2.1L13.4,33.3z
			 M9.6,31.6l3.3,0.5c0.7-0.8,1.3-1.4,2-2l0.3-0.2h0.3c4.9,0.4,7.4-3,8.2-4l0,0c-0.9-1.1-5.8-4.7-10.4-7.8l-2.4-0.9L7.2,29.1
			c0.1,0.1,0.3,0.2,0.4,0.3C8.4,30.1,9.1,30.8,9.6,31.6z"/>
	</g>
	<g>
		<path class="st0" d="M24.9,26.5h-10c-1.2,0-2.2-1-2.2-2.3c0-4.7,0-15.6,0-20.4c0-1.3,1-2.3,2.2-2.3h10c1.2,0,2.2,1,2.2,2.3
			c0,4.7,0,15.6,0,20.4C27.1,25.5,26.1,26.5,24.9,26.5z"/>
		<path d="M14.9,27c-0.7,0-1.4-0.3-2-0.8c-0.5-0.5-0.8-1.2-0.8-2V3.8c0-1.6,1.3-2.8,2.8-2.8h10c1.5,0,2.8,1.3,2.8,2.8v20.4
			c0,1.6-1.3,2.8-2.8,2.8L14.9,27L14.9,27z M24.9,2.1h-10c-0.9,0-1.7,0.8-1.7,1.7v20.4c0,0.5,0.2,0.9,0.5,1.2
			c0.3,0.3,0.7,0.5,1.2,0.5l0,0h10l0,0c0.9,0,1.7-0.8,1.7-1.7V3.8C26.5,2.9,25.8,2.1,24.9,2.1z"/>
	</g>
	<g>
		<rect x="12.7" y="5" class="st1" width="14.5" height="17"/>
		<path d="M27.7,22.5H12.1V4.4h15.6V22.5z M13.2,21.4h13.3V5.5H13.2V21.4z"/>
	</g>
	<g>
		<path class="st1" d="M26.8,26l-0.1-0.1c-0.6-0.6-0.9-1.3-0.5-1.7l1.5-1.7c0.5-0.6,1.5-0.7,2.1-0.1l0.1,0.1
			c0.6,0.6,0.7,1.5,0.2,2.1l-1.5,1.7C28.2,26.6,27.4,26.5,26.8,26z"/>
		<path d="M28,27c-0.5,0-1.1-0.2-1.6-0.6l0,0l-0.1-0.1c-0.9-0.8-1.1-1.9-0.6-2.5l1.5-1.7c0.3-0.4,0.8-0.7,1.4-0.7s1.1,0.1,1.5,0.5
			l0.1,0.1c0.9,0.8,1,2.1,0.2,2.9L29,26.6c-0.2,0.3-0.5,0.4-0.9,0.4H28z M27.2,25.5c0.3,0.3,0.7,0.4,0.8,0.4c0.1,0,0.1,0,0.1,0
			l1.5-1.7c0.3-0.4,0.3-1-0.1-1.3l-0.1-0.1c-0.2-0.2-0.4-0.3-0.7-0.2c-0.2,0-0.4,0.1-0.6,0.3l-1.5,1.7c-0.1,0.1,0,0.5,0.5,0.9
			L27.2,25.5z"/>
	</g>
	<g>
		<path class="st1" d="M13,17.4c0.6-1.8,0.8-3,1-5.1c0.1-1.2-0.4-2.2-0.9-2.9c-0.5-0.8-1.8-0.6-2.1,0.3c-1.1,3.7-1.4,4.7-2.1,6.6
			c-0.8,2.1-0.3,5-0.7,5.9c-0.1,0.2-2.7,3.6-3.5,4.7c0.8,0.4,2.4,1.1,3.1,1.7c0.8,0.7,1.5,1.5,2.2,2.4h0.6l3.5-3.7
			C15.6,22.8,14.3,19.1,13,17.4z"/>
	</g>
	<g>
		<path d="M10.5,31.5l-0.9-0.1l-0.2-0.2c-0.6-0.8-1.3-1.6-2.1-2.3c-0.5-0.4-1.6-1-2.4-1.3c-0.2-0.1-0.4-0.2-0.6-0.3L3.9,27l0.4-0.5
			c0.4-0.5,1.3-1.7,2-2.8c0.6-0.8,1.3-1.7,1.4-1.9c0.1-0.2,0.1-0.9,0.1-1.7c0-1.3,0.1-2.8,0.6-4.1c0.5-1.2,0.7-2,1.1-3.5
			c0.2-0.8,0.5-1.8,0.9-3.1c0.2-0.6,0.7-1,1.4-1.1s1.4,0.2,1.7,0.7c0.8,1.1,1.1,2.2,1,3.3c-0.2,2.1-0.4,3.3-0.9,4.9
			c1.4,2,2.5,5.8,1,10.2L13.5,27c1.4-4.1,0.3-7.6-1-9.3l-0.2-0.2l0.1-0.3c0.5-1.7,0.8-2.9,1-5c0.1-0.8-0.2-1.7-0.8-2.6
			c-0.2-0.2-0.4-0.3-0.6-0.2c-0.1,0-0.4,0.1-0.4,0.3c-0.4,1.3-0.7,2.3-0.9,3.1c-0.4,1.5-0.7,2.3-1.2,3.6C9,17.5,9,19,9,20.2
			c0,0.9,0,1.7-0.3,2.2c-0.1,0.1-0.2,0.3-1.5,2C6.6,25.1,6,26,5.6,26.6c0.9,0.4,2,1,2.6,1.5c0.8,0.7,1.5,1.5,2.1,2.3h0.3L10.5,31.5z
			"/>
	</g>
	<g>
		<polygon class="st2" points="5.8,24.4 2.7,27.5 11.3,36.2 14.3,33.1 		"/>
		<path d="M11.3,37l-9.4-9.5l3.8-3.9l9.4,9.5L11.3,37z M3.5,27.5l7.8,7.9l2.2-2.3l-7.8-7.9L3.5,27.5z"/>
	</g>
	<g>
		<path class="st1" d="M26.8,22l-0.1-0.1c-0.6-0.6-0.9-1.4-0.5-1.8l1.5-1.7c0.5-0.6,1.5-0.7,2.1-0.1l0.1,0.1
			c0.6,0.6,0.7,1.5,0.2,2.2l-1.5,1.7C28.3,22.7,27.4,22.6,26.8,22z"/>
		<path d="M28,23.1c-0.5,0-1.1-0.2-1.6-0.7l-0.1-0.1c-0.9-0.8-1.1-1.9-0.6-2.6l1.5-1.7c0.4-0.4,0.8-0.7,1.4-0.7s1.1,0.1,1.5,0.5
			l0.1,0.1c0.9,0.8,1,2.1,0.2,3L29,22.6c-0.2,0.3-0.5,0.4-0.9,0.4C28.1,23.1,28,23.1,28,23.1z M28.8,18.4
			C28.7,18.4,28.7,18.4,28.8,18.4c-0.3,0-0.5,0.1-0.7,0.3l-1.5,1.7c-0.1,0.1,0,0.6,0.5,1l0.1,0.1c0.3,0.3,0.7,0.4,0.9,0.4
			c0.1,0,0.1,0,0.1,0l1.5-1.7c0.3-0.4,0.3-1-0.1-1.4l-0.1-0.1C29.2,18.5,29,18.4,28.8,18.4z"/>
	</g>
	<g>
		<path class="st1" d="M26.8,18.1L26.7,18c-0.6-0.6-0.9-1.4-0.5-1.8l1.5-1.7c0.5-0.6,1.5-0.7,2.1-0.1l0.1,0.1
			c0.6,0.6,0.7,1.5,0.2,2.2l-1.5,1.7C28.2,18.8,27.4,18.7,26.8,18.1z"/>
		<path d="M28,19.2c-0.5,0-1.1-0.2-1.6-0.7l-0.1-0.1c-0.9-0.8-1.1-1.9-0.6-2.6l1.5-1.7c0.4-0.4,0.8-0.7,1.4-0.7s1.1,0.1,1.5,0.5
			l0.1,0.1c0.9,0.8,1,2.1,0.2,3L29,18.8c-0.2,0.3-0.5,0.4-0.9,0.4L28,19.2z M28.8,14.6C28.7,14.6,28.7,14.6,28.8,14.6
			c-0.3,0-0.5,0.1-0.7,0.3l-1.5,1.7c-0.1,0.1,0,0.6,0.5,1l0.1,0.1c0.3,0.3,0.7,0.4,0.9,0.4c0.1,0,0.1,0,0.1,0l1.5-1.7
			c0.3-0.4,0.3-1-0.1-1.4l-0.1-0.1C29.2,14.7,29,14.6,28.8,14.6z"/>
	</g>
	<g>
		<rect x="18.2" y="23.6" width="3.3" height="1.1"/>
	</g>
	<g>
		<path class="st2" d="M24,18.1v-2c0-1.3-3.1-2.3-4.1-2.3s-4.1,1-4.1,2.3v2"/>
		<path d="M24.5,18.1h-1.1v-2c0-0.7-2.5-1.7-3.5-1.7s-3.5,1-3.5,1.7v2h-1.1v-2c0-1.8,3.5-2.9,4.6-2.9s4.6,1,4.6,2.9V18.1z"/>
	</g>
	<g>
		<path class="st1" d="M19.9,14.1c1.2,0,2.2-1,2.2-2.3V11c0-1.3-0.9-2.3-2.2-2.3c-1.2,0-2.2,1-2.2,2.3v0.8
			C17.7,13.1,18.6,14.1,19.9,14.1z"/>
		<path d="M19.9,14.7c-1.5,0-2.7-1.2-2.7-2.8v-0.8c0-1.6,1.2-2.8,2.7-2.8s2.7,1.2,2.7,2.8v0.8C22.6,13.4,21.4,14.7,19.9,14.7z
			 M19.9,9.4c-0.9,0-1.6,0.7-1.6,1.7v0.8c0,1,0.7,1.7,1.6,1.7s1.6-0.7,1.6-1.7v-0.8C21.5,10.1,20.8,9.4,19.9,9.4z"/>
	</g>
</g>
</svg>
