<?xml version="1.0" encoding="utf-8"?>
<!-- Generator: Adobe Illustrator 19.2.1, SVG Export Plug-In . SVG Version: 6.00 Build 0)  -->
<svg version="1.1" id="Layer_1" xmlns="http://www.w3.org/2000/svg" xmlns:xlink="http://www.w3.org/1999/xlink" x="0px" y="0px"
	 viewBox="0 0 38 38" style="enable-background:new 0 0 38 38;" xml:space="preserve">
<style type="text/css">
	.st0{fill:#DBDBDB;}
	.st1{fill:#FFFFFF;}
	.st2{fill:#EF3829;}
</style>
<g>
	<circle class="st0" cx="16.7" cy="15.2" r="14.2"/>
	<g>
		<g>
			<path class="st1" d="M28.9,11l4.8,1.7c1.1,0.4,1.6,1.6,1.2,2.6l-7.2,19.8c-0.4,1.1-1.6,1.6-2.6,1.2l-10.2-3.7
				c-1.1-0.4-1.6-1.6-1.2-2.6l2.1-5.8"/>
			<path d="M25.8,37c-0.3,0-0.6-0.1-0.9-0.2l-10.2-3.7c-0.6-0.2-1.2-0.7-1.5-1.3c-0.3-0.6-0.3-1.3-0.1-2l2.1-5.8l1.1,0.4l-2.1,5.8
				c-0.1,0.4-0.1,0.8,0.1,1.1c0.2,0.4,0.5,0.6,0.8,0.8l10.2,3.7c0.4,0.1,0.8,0.1,1.1-0.1c0.4-0.2,0.6-0.5,0.8-0.8l7.2-19.8
				c0.3-0.8-0.1-1.6-0.9-1.9l-4.8-1.7l0.4-1.1l4.8,1.7c1.3,0.5,2,2,1.6,3.3l-7.2,19.8c-0.2,0.6-0.7,1.2-1.3,1.5
				C26.5,36.9,26.2,37,25.8,37z"/>
		</g>
		<g>
			<rect x="20.5" y="30.6" transform="matrix(0.342 -0.9397 0.9397 0.342 -16.2 40.7607)" width="1.1" height="2.7"/>
		</g>
		<g>
			<rect x="31.4" y="13.1" transform="matrix(0.342 -0.9397 0.9397 0.342 6.3112 40.3746)" width="1.1" height="5.2"/>
		</g>
		<g>
			<rect x="21" y="22.5" transform="matrix(0.342 -0.9397 0.9397 0.342 -13.9976 40.0039)" width="1.1" height="14.9"/>
		</g>
		<g>
			<path class="st1" d="M27.6,13.8c0-4.7-4.9-8.6-11-8.6s-11,3.8-11,8.6c0,4.7,4.9,8.6,11,8.6c0.7,0,1.3-0.1,2-0.1
				c1.2,1,2.9,2.1,5.1,3.3c0.8,0.4,1,0.1,0.6-0.7c-0.8-1.4-1.1-2.8-1.2-4.1C25.8,19.2,27.6,16.6,27.6,13.8z"/>
			<path d="M24.2,26.2c-0.3,0-0.7-0.2-0.8-0.3c-2-1-3.6-2.1-5-3.2c-0.6,0.1-1.2,0.1-1.8,0.1c-6.4,0.1-11.6-4-11.6-9
				s5.2-9.1,11.6-9.1s11.6,4.1,11.6,9.1c0,2.8-1.7,5.5-4.5,7.2c0.1,1.3,0.5,2.4,1.1,3.5c0.1,0.2,0.5,1,0.1,1.4
				C24.6,26.2,24.4,26.2,24.2,26.2z M18.7,21.6l0.2,0.2c1.2,1,2.8,2.1,4.7,3c-0.6-1.3-1-2.6-1.1-4.1v-0.4l0.3-0.2
				c2.7-1.5,4.3-3.9,4.3-6.4c0-4.4-4.7-8-10.5-8s-10.5,3.6-10.5,8s4.7,8,10.5,8c0.6,0,1.2,0,1.9-0.1H18.7z"/>
		</g>
		<g>
			<path class="st2" d="M22.8,16.8c0,0.7-0.6,1.4-1.4,1.4H12c-0.7,0-1.4-0.6-1.4-1.4v-6.1c0-0.7,0.6-1.4,1.4-1.4h9.5
				c0.7,0,1.4,0.6,1.4,1.4v6.1H22.8z"/>
			<path d="M21.5,18.7H12c-1.1,0-1.9-0.9-1.9-1.9v-6.1c0-1.1,0.9-1.9,1.9-1.9h9.5c1.1,0,1.9,0.9,1.9,1.9v6.1
				C23.4,17.8,22.5,18.7,21.5,18.7z M12,9.9c-0.4,0-0.8,0.4-0.8,0.8v6.1c0,0.4,0.4,0.8,0.8,0.8h9.5c0.4,0,0.8-0.4,0.8-0.8v-6.1
				c0-0.4-0.4-0.8-0.8-0.8L12,9.9z"/>
		</g>
		<g>
			<path d="M16.5,15.1c-0.4,0-0.8-0.1-1.2-0.3l-5-3.4l0.6-0.9l5,3.4c0.3,0.2,0.8,0.2,1.1,0l5-3.4l0.6,0.9l-5,3.4
				C17.4,15,17,15.1,16.5,15.1z"/>
		</g>
	</g>
</g>
</svg>
