<?xml version="1.0" encoding="utf-8"?>
<!-- Generator: Adobe Illustrator 21.0.0, SVG Export Plug-In . SVG Version: 6.00 Build 0)  -->
<svg version="1.1" id="Capa_1" xmlns="http://www.w3.org/2000/svg" xmlns:xlink="http://www.w3.org/1999/xlink" x="0px" y="0px"
	 viewBox="0 0 40.6 40.7" style="enable-background:new 0 0 40.6 40.7;" xml:space="preserve">
<style type="text/css">
	.st0{fill:#D9D9D9;}
	.st1{fill:#01A0C6;}
	.st2{fill:#FFFFFF;}
</style>
<rect y="-0.2" class="st0" width="40.6" height="40.9"/>
<g>
	<path class="st1" d="M21.6,23.1l-3.2-3.3l-6.1,3.4l6.7-7.1l3.2,3.3l6.1-3.4L21.6,23.1z M20.3,7.7c-6.7,0-12.2,5.1-12.2,11.5
		c0,3.6,1.8,6.8,4.5,8.9v4.4l4.2-2.3c1.1,0.3,2.3,0.5,3.5,0.5c6.7,0,12.2-5.1,12.2-11.5C32.5,12.9,27.1,7.7,20.3,7.7"/>
</g>
<polygon class="st2" points="12.4,23.7 19,16.6 22.2,19.9 28.3,16.6 21.6,23.7 18.5,20.4 "/>
</svg>
