<?xml version="1.0" encoding="utf-8"?>
<!-- Generator: Adobe Illustrator 21.0.0, SVG Export Plug-In . SVG Version: 6.00 Build 0)  -->
<svg version="1.1" id="Capa_1" xmlns="http://www.w3.org/2000/svg" xmlns:xlink="http://www.w3.org/1999/xlink" x="0px" y="0px"
	 viewBox="0 0 40.6 40.7" style="enable-background:new 0 0 40.6 40.7;" xml:space="preserve">
<style type="text/css">
	.st0{fill:#EFEEEA;}
	.st1{clip-path:url(#SVGID_2_);fill:url(#SVGID_3_);}
	.st2{clip-path:url(#SVGID_5_);fill:url(#SVGID_6_);}
	.st3{clip-path:url(#SVGID_8_);fill:url(#SVGID_9_);}
	.st4{clip-path:url(#SVGID_11_);fill:url(#SVGID_12_);}
	.st5{fill:#4D4D4D;}
	.st6{font-family:'Roboto-Bold';}
	.st7{font-size:4.0714px;}
</style>
<rect y="0" class="st0" width="40.6" height="40.6"/>
<g>
	<defs>
		<path id="SVGID_1_" d="M4,19.3c-0.2,0.2-0.4,0.4-0.4,0.7v5.8c0,0.6,0.7,1,1.4,1c0.2,0,0.3-0.1,0.4-0.3l1.1,0.8V18l-0.8,0.5
			c0.6-7.1,6.6-12.3,14.4-12.3c7.8,0,13.8,5.2,14.4,12.3L33.8,18v9.3l1.1-0.8c0.1,0.2,0.2,0.3,0.4,0.3c0.7,0,1.4-0.4,1.4-1V20
			c0-0.3-0.1-0.5-0.3-0.7c-0.2-8.5-7-14.9-16.2-14.9C11.1,4.5,4.2,10.8,4,19.3"/>
	</defs>
	<clipPath id="SVGID_2_">
		<use xlink:href="#SVGID_1_"  style="overflow:visible;"/>
	</clipPath>
	
		<linearGradient id="SVGID_3_" gradientUnits="userSpaceOnUse" x1="-376.2985" y1="468.8184" x2="-375.771" y2="468.8184" gradientTransform="matrix(0 -43.2085 -43.2085 0 20277.0918 -16232.0156)">
		<stop  offset="0" style="stop-color:#95908A"/>
		<stop  offset="1" style="stop-color:#BEB7B1"/>
	</linearGradient>
	<rect x="3.6" y="4.5" class="st1" width="33" height="22.8"/>
</g>
<g>
	<defs>
		<path id="SVGID_4_" d="M31.5,15.9c-0.4,0-0.9,0.3-0.9,0.8v12c0,0.4,0.5,0.7,0.9,0.7H33c0.4,0,0.7-0.2,0.7-0.7v-12
			c0-0.4-0.3-0.8-0.7-0.8H31.5z"/>
	</defs>
	<clipPath id="SVGID_5_">
		<use xlink:href="#SVGID_4_"  style="overflow:visible;"/>
	</clipPath>
	
		<linearGradient id="SVGID_6_" gradientUnits="userSpaceOnUse" x1="-377.8307" y1="467.021" x2="-377.3032" y2="467.021" gradientTransform="matrix(0 -25.4504 -25.4504 0 11918.0566 -9586.6494)">
		<stop  offset="0" style="stop-color:#0E0C0E"/>
		<stop  offset="1" style="stop-color:#363334"/>
	</linearGradient>
	<rect x="30.6" y="15.9" class="st2" width="3.2" height="13.4"/>
</g>
<g>
	<defs>
		<path id="SVGID_7_" d="M7.4,15.9c-0.4,0-0.9,0.3-0.9,0.8v12c0,0.4,0.4,0.7,0.9,0.7H9c0.4,0,0.8-0.2,0.8-0.7v-12
			c0-0.4-0.3-0.8-0.8-0.8H7.4z"/>
	</defs>
	<clipPath id="SVGID_8_">
		<use xlink:href="#SVGID_7_"  style="overflow:visible;"/>
	</clipPath>
	
		<linearGradient id="SVGID_9_" gradientUnits="userSpaceOnUse" x1="-377.8307" y1="466.1758" x2="-377.3032" y2="466.1758" gradientTransform="matrix(0 -25.4504 -25.4504 0 11872.5293 -9586.6494)">
		<stop  offset="0" style="stop-color:#0E0C0E"/>
		<stop  offset="1" style="stop-color:#363334"/>
	</linearGradient>
	<rect x="6.5" y="15.9" class="st3" width="3.2" height="13.4"/>
</g>
<g>
	<defs>
		<path id="SVGID_10_" d="M11.6,27.2l6.2,6.2l1.8-1.8l-6.2-6.2L11.6,27.2z M14.2,24H23v-2.6h-8.7V24z M11.6,18.2l1.8,1.8l6.2-6.2
			l-1.8-1.8L11.6,18.2z"/>
	</defs>
	<clipPath id="SVGID_11_">
		<use xlink:href="#SVGID_10_"  style="overflow:visible;"/>
	</clipPath>
	
		<linearGradient id="SVGID_12_" gradientUnits="userSpaceOnUse" x1="-376.3324" y1="468.5215" x2="-375.8048" y2="468.5215" gradientTransform="matrix(0 -40.2572 -40.2572 0 18878.6465 -15116.748)">
		<stop  offset="0" style="stop-color:#E41511"/>
		<stop  offset="1" style="stop-color:#FB142A"/>
	</linearGradient>
	<rect x="11.6" y="12.1" class="st4" width="11.3" height="21.2"/>
</g>
<text transform="matrix(1 0 0 1 7.2285 37.9219)"><tspan x="0" y="0" class="st5 st6 st7">CLARO MÚSIC</tspan><tspan x="24.9" y="0" class="st5 st6 st7">A</tspan></text>
</svg>
