<?xml version="1.0" encoding="utf-8"?>
<!-- Generator: Adobe Illustrator 21.0.0, SVG Export Plug-In . SVG Version: 6.00 Build 0)  -->
<svg version="1.1" id="Capa_1" xmlns="http://www.w3.org/2000/svg" xmlns:xlink="http://www.w3.org/1999/xlink" x="0px" y="0px"
	 viewBox="0 0 40.6 40.7" style="enable-background:new 0 0 40.6 40.7;" xml:space="preserve">
<style type="text/css">
	.st0{fill:#6BBC3F;}
	.st1{fill:#F2F2F2;}
	.st2{fill:#FFFFFF;}
</style>
<rect class="st0" width="40.6" height="40.7"/>
<path class="st1" d="M32.3,19.9c0-6.7-5.3-12.1-11.8-12.1c-6.5,0-11.8,5.4-11.8,12.1c0,2.3,0.6,4.4,1.7,6.2l-2.2,6.7l6.6-2.3
	c1.7,1,3.6,1.5,5.7,1.5C27.1,32,32.3,26.6,32.3,19.9"/>
<path class="st0" d="M30.5,20.3c0-5.6-4.4-10.2-9.9-10.2c-5.5,0-9.9,4.6-9.9,10.2c0,2.2,0.7,4.3,1.9,5.9l-1.3,3.9l4-1.3
	c1.5,1,3.4,1.6,5.3,1.6C26,30.5,30.5,25.9,30.5,20.3"/>
<path class="st2" d="M16.7,14.7h0.5c0,0,0.3-0.1,0.5,0.5l0.9,2.3c0,0,0.2,0.4-0.1,0.7L17.9,19c0,0-0.2,0.2-0.1,0.5
	c0,0,1.1,2.3,4,3.6c0,0,0.3,0.2,0.6-0.1c0.3-0.3,0.9-1.2,0.9-1.2s0.2-0.3,0.5-0.2l2.4,1.2c0,0,0.3,0.1,0.3,0.5c0,0-0.1,1.4-0.8,1.8
	c0,0-1.4,1.1-2.9,0.6c0,0-1.7-0.3-3.2-1.3c0,0-1.7-1.2-3.6-3.6c0,0-1.9-2.4-1.1-4.5c0,0,0.3-0.9,0.9-1.4
	C15.9,14.9,16.1,14.7,16.7,14.7"/>
</svg>
